<?xml version="1.0" encoding="UTF-8" standalone="no"?>
<!DOCTYPE svg PUBLIC "-//W3C//DTD SVG 1.1//EN"
 "http://www.w3.org/Graphics/SVG/1.1/DTD/svg11.dtd">
<!-- Generated by graphviz version 2.43.0 (0)
 -->
<!-- Title: modules Pages: 1 -->
<svg width="1024pt" height="1178pt"
 viewBox="0.00 0.00 1023.50 1177.51" xmlns="http://www.w3.org/2000/svg" xmlns:xlink="http://www.w3.org/1999/xlink">
<g id="graph0" class="graph" transform="scale(1 1) rotate(0) translate(4 1173.51)">
<title>modules</title>
<polygon fill="white" stroke="transparent" points="-4,4 -4,-1173.51 1019.5,-1173.51 1019.5,4 -4,4"/>
<g id="clust1" class="cluster">
<title>cluster_orch</title>
<path fill="none" stroke="lightgrey" d="M20,-836.03C20,-836.03 628,-836.03 628,-836.03 634,-836.03 640,-842.03 640,-848.03 640,-848.03 640,-1149.51 640,-1149.51 640,-1155.51 634,-1161.51 628,-1161.51 628,-1161.51 20,-1161.51 20,-1161.51 14,-1161.51 8,-1155.51 8,-1149.51 8,-1149.51 8,-848.03 8,-848.03 8,-842.03 14,-836.03 20,-836.03"/>
<text text-anchor="middle" x="324" y="-1147.91" font-family="Helvetica,sans-Serif" font-size="12.00">Entry &amp; Orchestration</text>
</g>
<g id="clust2" class="cluster">
<title>cluster_data</title>
<path fill="none" stroke="lightgrey" d="M660,-614.13C660,-614.13 918,-614.13 918,-614.13 924,-614.13 930,-620.13 930,-626.13 930,-626.13 930,-897.03 930,-897.03 930,-903.03 924,-909.03 918,-909.03 918,-909.03 660,-909.03 660,-909.03 654,-909.03 648,-903.03 648,-897.03 648,-897.03 648,-626.13 648,-626.13 648,-620.13 654,-614.13 660,-614.13"/>
<text text-anchor="middle" x="789" y="-895.43" font-family="Helvetica,sans-Serif" font-size="12.00">Data &amp; Calibration</text>
</g>
<g id="clust3" class="cluster">
<title>cluster_model</title>
<path fill="none" stroke="lightgrey" d="M558,-335.91C558,-335.91 894,-335.91 894,-335.91 900,-335.91 906,-341.91 906,-347.91 906,-347.91 906,-594.13 906,-594.13 906,-600.13 900,-606.13 894,-606.13 894,-606.13 558,-606.13 558,-606.13 552,-606.13 546,-600.13 546,-594.13 546,-594.13 546,-347.91 546,-347.91 546,-341.91 552,-335.91 558,-335.91"/>
<text text-anchor="middle" x="726" y="-592.53" font-family="Helvetica,sans-Serif" font-size="12.00">Modeling</text>
</g>
<g id="clust4" class="cluster">
<title>cluster_diag</title>
<path fill="none" stroke="lightgrey" d="M616,-194.74C616,-194.74 836,-194.74 836,-194.74 842,-194.74 848,-200.74 848,-206.74 848,-206.74 848,-315.91 848,-315.91 848,-321.91 842,-327.91 836,-327.91 836,-327.91 616,-327.91 616,-327.91 610,-327.91 604,-321.91 604,-315.91 604,-315.91 604,-206.74 604,-206.74 604,-200.74 610,-194.74 616,-194.74"/>
<text text-anchor="middle" x="726" y="-314.31" font-family="Helvetica,sans-Serif" font-size="12.00">Diagnostics</text>
</g>
<g id="clust5" class="cluster">
<title>cluster_submit</title>
<path fill="none" stroke="lightgrey" d="M576,-8C576,-8 788,-8 788,-8 794,-8 800,-14 800,-20 800,-20 800,-174.74 800,-174.74 800,-180.74 794,-186.74 788,-186.74 788,-186.74 576,-186.74 576,-186.74 570,-186.74 564,-180.74 564,-174.74 564,-174.74 564,-20 564,-20 564,-14 570,-8 576,-8"/>
<text text-anchor="middle" x="682" y="-173.14" font-family="Helvetica,sans-Serif" font-size="12.00">Submission</text>
</g>
<!-- UCI -->
<g id="node1" class="node">
<title>UCI</title>
<ellipse fill="none" stroke="black" cx="324" cy="-1114.51" rx="51.99" ry="18"/>
<text text-anchor="middle" x="324" y="-1110.81" font-family="Times,serif" font-size="14.00">User / CI</text>
</g>
<!-- CLI -->
<g id="node2" class="node">
<title>CLI</title>
<ellipse fill="none" stroke="black" cx="324" cy="-1033.64" rx="307.68" ry="26.74"/>
<text text-anchor="middle" x="324" y="-1037.44" font-family="Times,serif" font-size="14.00">spectramind CLI</text>
<text text-anchor="middle" x="324" y="-1022.44" font-family="Times,serif" font-size="14.00">(calibrate | preprocess | train | predict | diagnose | submit)</text>
</g>
<!-- UCI&#45;&gt;CLI -->
<g id="edge1" class="edge">
<title>UCI&#45;&gt;CLI</title>
<path fill="none" stroke="black" d="M324,-1096.4C324,-1088.91 324,-1079.82 324,-1070.94"/>
<polygon fill="black" stroke="black" points="327.5,-1070.73 324,-1060.73 320.5,-1070.73 327.5,-1070.73"/>
</g>
<!-- HYDRA -->
<g id="node3" class="node">
<title>HYDRA</title>
<ellipse fill="none" stroke="black" cx="370" cy="-943.9" rx="165.43" ry="26.74"/>
<text text-anchor="middle" x="370" y="-947.7" font-family="Times,serif" font-size="14.00">Hydra configs</text>
<text text-anchor="middle" x="370" y="-932.7" font-family="Times,serif" font-size="14.00">(configs/**/*.yaml + overrides)</text>
</g>
<!-- CLI&#45;&gt;HYDRA -->
<g id="edge2" class="edge">
<title>CLI&#45;&gt;HYDRA</title>
<path fill="none" stroke="black" d="M337.55,-1006.79C341.96,-998.39 346.92,-988.92 351.62,-979.96"/>
<polygon fill="black" stroke="black" points="354.84,-981.35 356.39,-970.87 348.64,-978.1 354.84,-981.35"/>
</g>
<!-- DVC -->
<g id="node4" class="node">
<title>DVC</title>
<ellipse fill="none" stroke="black" cx="463" cy="-862.03" rx="122.38" ry="18"/>
<text text-anchor="middle" x="463" y="-858.33" font-family="Times,serif" font-size="14.00">DVC pipeline (dvc.yaml)</text>
</g>
<!-- HYDRA&#45;&gt;DVC -->
<g id="edge3" class="edge">
<title>HYDRA&#45;&gt;DVC</title>
<path fill="none" stroke="black" d="M399.68,-917.41C411.15,-907.57 424.19,-896.37 435.44,-886.7"/>
<polygon fill="black" stroke="black" points="437.97,-889.15 443.27,-879.98 433.41,-883.84 437.97,-889.15"/>
</g>
<!-- CAL -->
<g id="node6" class="node">
<title>CAL</title>
<ellipse fill="none" stroke="black" cx="789" cy="-770.56" rx="125.32" ry="37.45"/>
<text text-anchor="middle" x="789" y="-781.86" font-family="Times,serif" font-size="14.00">Calibration</text>
<text text-anchor="middle" x="789" y="-766.86" font-family="Times,serif" font-size="14.00">(ADC, dark, flat, trace,</text>
<text text-anchor="middle" x="789" y="-751.86" font-family="Times,serif" font-size="14.00">photometry, phase)</text>
</g>
<!-- DVC&#45;&gt;CAL -->
<g id="edge19" class="edge">
<title>DVC&#45;&gt;CAL</title>
<path fill="none" stroke="black" d="M518.3,-845.86C564.74,-833.11 632.3,-814.57 688.3,-799.2"/>
<polygon fill="black" stroke="black" points="689.54,-802.49 698.26,-796.46 687.69,-795.74 689.54,-802.49"/>
</g>
<!-- RAW -->
<g id="node5" class="node">
<title>RAW</title>
<ellipse fill="none" stroke="black" cx="789" cy="-862.03" rx="126.18" ry="18"/>
<text text-anchor="middle" x="789" y="-858.33" font-family="Times,serif" font-size="14.00">Raw data (FGS1 + AIRS)</text>
</g>
<!-- RAW&#45;&gt;CAL -->
<g id="edge4" class="edge">
<title>RAW&#45;&gt;CAL</title>
<path fill="none" stroke="black" d="M789,-843.78C789,-836.48 789,-827.57 789,-818.55"/>
<polygon fill="black" stroke="black" points="792.5,-818.39 789,-808.39 785.5,-818.39 792.5,-818.39"/>
</g>
<!-- PRE -->
<g id="node7" class="node">
<title>PRE</title>
<ellipse fill="none" stroke="black" cx="789" cy="-659.6" rx="132.87" ry="37.45"/>
<text text-anchor="middle" x="789" y="-670.9" font-family="Times,serif" font-size="14.00">Preprocessing</text>
<text text-anchor="middle" x="789" y="-655.9" font-family="Times,serif" font-size="14.00">(normalization, binning,</text>
<text text-anchor="middle" x="789" y="-640.9" font-family="Times,serif" font-size="14.00">jitter detrend)</text>
</g>
<!-- CAL&#45;&gt;PRE -->
<g id="edge5" class="edge">
<title>CAL&#45;&gt;PRE</title>
<path fill="none" stroke="black" d="M789,-732.97C789,-724.8 789,-716.02 789,-707.49"/>
<polygon fill="black" stroke="black" points="792.5,-707.28 789,-697.28 785.5,-707.28 792.5,-707.28"/>
</g>
<!-- ART -->
<g id="node15" class="node">
<title>ART</title>
<polygon fill="none" stroke="blue" points="1009.5,-68 808.5,-68 808.5,0 1015.5,0 1015.5,-62 1009.5,-68"/>
<polyline fill="none" stroke="blue" points="1009.5,-68 1009.5,-62 "/>
<polyline fill="none" stroke="blue" points="1015.5,-62 1009.5,-62 "/>
<text text-anchor="middle" x="912" y="-52.8" font-family="Times,serif" font-size="14.00">Artifacts &amp; outputs</text>
<text text-anchor="middle" x="912" y="-37.8" font-family="Times,serif" font-size="14.00">(DVC&#45;tracked: data,</text>
<text text-anchor="middle" x="912" y="-22.8" font-family="Times,serif" font-size="14.00">checkpoints, metrics, logs,</text>
<text text-anchor="middle" x="912" y="-7.8" font-family="Times,serif" font-size="14.00">reports, submissions)</text>
</g>
<!-- CAL&#45;&gt;ART -->
<g id="edge14" class="edge">
<title>CAL&#45;&gt;ART</title>
<path fill="none" stroke="black" stroke-dasharray="5,2" d="M873.69,-742.79C895.56,-731.94 916.88,-717.1 931,-697.08 968.67,-643.67 950,-616.62 950,-551.26 950,-551.26 950,-551.26 950,-249.82 950,-184.47 943.93,-168.07 931,-104 929.29,-95.51 927.1,-86.52 924.82,-77.95"/>
<polygon fill="black" stroke="black" points="928.14,-76.84 922.12,-68.12 921.39,-78.69 928.14,-76.84"/>
</g>
<!-- ENCF -->
<g id="node8" class="node">
<title>ENCF</title>
<ellipse fill="none" stroke="black" cx="815" cy="-550.26" rx="83.38" ry="26.74"/>
<text text-anchor="middle" x="815" y="-554.06" font-family="Times,serif" font-size="14.00">FGS1 encoder</text>
<text text-anchor="middle" x="815" y="-539.06" font-family="Times,serif" font-size="14.00">(Mamba SSM)</text>
</g>
<!-- PRE&#45;&gt;ENCF -->
<g id="edge6" class="edge">
<title>PRE&#45;&gt;ENCF</title>
<path fill="none" stroke="black" d="M797.88,-621.96C800.6,-610.71 803.6,-598.34 806.31,-587.14"/>
<polygon fill="black" stroke="black" points="809.75,-587.79 808.71,-577.24 802.95,-586.14 809.75,-587.79"/>
</g>
<!-- ENCA -->
<g id="node9" class="node">
<title>ENCA</title>
<ellipse fill="none" stroke="black" cx="634" cy="-550.26" rx="79.81" ry="26.74"/>
<text text-anchor="middle" x="634" y="-554.06" font-family="Times,serif" font-size="14.00">AIRS encoder</text>
<text text-anchor="middle" x="634" y="-539.06" font-family="Times,serif" font-size="14.00">(CNN/GNN)</text>
</g>
<!-- PRE&#45;&gt;ENCA -->
<g id="edge7" class="edge">
<title>PRE&#45;&gt;ENCA</title>
<path fill="none" stroke="black" d="M739.96,-624.64C719.56,-610.51 696.11,-594.27 676.46,-580.67"/>
<polygon fill="black" stroke="black" points="678.23,-577.63 668.02,-574.81 674.24,-583.39 678.23,-577.63"/>
</g>
<!-- FUS -->
<g id="node10" class="node">
<title>FUS</title>
<ellipse fill="none" stroke="black" cx="764" cy="-460.52" rx="94.51" ry="26.74"/>
<text text-anchor="middle" x="764" y="-464.32" font-family="Times,serif" font-size="14.00">Fusion</text>
<text text-anchor="middle" x="764" y="-449.32" font-family="Times,serif" font-size="14.00">(cross&#45;attention)</text>
</g>
<!-- ENCF&#45;&gt;FUS -->
<g id="edge8" class="edge">
<title>ENCF&#45;&gt;FUS</title>
<path fill="none" stroke="black" d="M799.97,-523.41C794.99,-514.84 789.37,-505.16 784.07,-496.05"/>
<polygon fill="black" stroke="black" points="786.97,-494.07 778.92,-487.18 780.92,-497.59 786.97,-494.07"/>
</g>
<!-- ENCA&#45;&gt;FUS -->
<g id="edge9" class="edge">
<title>ENCA&#45;&gt;FUS</title>
<path fill="none" stroke="black" d="M668.5,-525.97C684.25,-515.34 703.1,-502.62 719.88,-491.29"/>
<polygon fill="black" stroke="black" points="722.1,-494.02 728.44,-485.52 718.19,-488.21 722.1,-494.02"/>
</g>
<!-- DEC -->
<g id="node11" class="node">
<title>DEC</title>
<ellipse fill="none" stroke="black" cx="726" cy="-370.78" rx="157.87" ry="26.74"/>
<text text-anchor="middle" x="726" y="-374.58" font-family="Times,serif" font-size="14.00">Decoders</text>
<text text-anchor="middle" x="726" y="-359.58" font-family="Times,serif" font-size="14.00">(μ &amp; σ; heteroscedastic GLL)</text>
</g>
<!-- FUS&#45;&gt;DEC -->
<g id="edge10" class="edge">
<title>FUS&#45;&gt;DEC</title>
<path fill="none" stroke="black" d="M752.8,-433.67C749.2,-425.35 745.15,-415.99 741.3,-407.11"/>
<polygon fill="black" stroke="black" points="744.43,-405.53 737.25,-397.75 738.01,-408.31 744.43,-405.53"/>
</g>
<!-- FUS&#45;&gt;ART -->
<g id="edge15" class="edge">
<title>FUS&#45;&gt;ART</title>
<path fill="none" stroke="black" stroke-dasharray="5,2" d="M832.96,-442.03C855.84,-432.69 879.02,-418.62 893,-397.65 927.12,-346.47 920.26,-162.65 915.08,-78.1"/>
<polygon fill="black" stroke="black" points="918.57,-77.81 914.44,-68.06 911.58,-78.26 918.57,-77.81"/>
</g>
<!-- DIA -->
<g id="node12" class="node">
<title>DIA</title>
<ellipse fill="none" stroke="black" cx="726" cy="-250.82" rx="113.69" ry="48.17"/>
<text text-anchor="middle" x="726" y="-269.62" font-family="Times,serif" font-size="14.00">Diagnostics</text>
<text text-anchor="middle" x="726" y="-254.62" font-family="Times,serif" font-size="14.00">(GLL metric, FFT,</text>
<text text-anchor="middle" x="726" y="-239.62" font-family="Times,serif" font-size="14.00">UMAP/t&#45;SNE, SHAP,</text>
<text text-anchor="middle" x="726" y="-224.62" font-family="Times,serif" font-size="14.00">symbolic checks)</text>
</g>
<!-- DEC&#45;&gt;DIA -->
<g id="edge11" class="edge">
<title>DEC&#45;&gt;DIA</title>
<path fill="none" stroke="black" d="M726,-343.89C726,-333.61 726,-321.35 726,-309.18"/>
<polygon fill="black" stroke="black" points="729.5,-309.03 726,-299.03 722.5,-309.03 729.5,-309.03"/>
</g>
<!-- DEC&#45;&gt;ART -->
<g id="edge16" class="edge">
<title>DEC&#45;&gt;ART</title>
<path fill="none" stroke="black" stroke-dasharray="5,2" d="M823.36,-349.46C834.12,-343.92 844.04,-336.87 852,-327.91 852.52,-327.32 886.69,-159.49 903.23,-78.17"/>
<polygon fill="black" stroke="black" points="906.69,-78.73 905.25,-68.23 899.83,-77.34 906.69,-78.73"/>
</g>
<!-- SUB -->
<g id="node13" class="node">
<title>SUB</title>
<ellipse fill="none" stroke="black" cx="682" cy="-130.87" rx="110.12" ry="26.74"/>
<text text-anchor="middle" x="682" y="-134.67" font-family="Times,serif" font-size="14.00">Submission bundle</text>
<text text-anchor="middle" x="682" y="-119.67" font-family="Times,serif" font-size="14.00">(CSV, manifest, zip)</text>
</g>
<!-- DIA&#45;&gt;SUB -->
<g id="edge12" class="edge">
<title>DIA&#45;&gt;SUB</title>
<path fill="none" stroke="black" d="M708.61,-203.21C704.15,-191.25 699.43,-178.59 695.22,-167.3"/>
<polygon fill="black" stroke="black" points="698.44,-165.94 691.67,-157.79 691.89,-168.38 698.44,-165.94"/>
</g>
<!-- DIA&#45;&gt;ART -->
<g id="edge17" class="edge">
<title>DIA&#45;&gt;ART</title>
<path fill="none" stroke="black" stroke-dasharray="5,2" d="M781.71,-208.49C789.57,-201.62 797.26,-194.27 804,-186.74 833.13,-154.2 831.58,-139.51 857,-104 863.55,-94.84 870.88,-85.26 877.99,-76.24"/>
<polygon fill="black" stroke="black" points="880.94,-78.16 884.43,-68.15 875.47,-73.8 880.94,-78.16"/>
</g>
<!-- LB -->
<g id="node14" class="node">
<title>LB</title>
<ellipse fill="none" stroke="black" cx="682" cy="-34" rx="102.08" ry="18"/>
<text text-anchor="middle" x="682" y="-30.3" font-family="Times,serif" font-size="14.00">Kaggle leaderboard</text>
</g>
<!-- SUB&#45;&gt;LB -->
<g id="edge13" class="edge">
<title>SUB&#45;&gt;LB</title>
<path fill="none" stroke="black" d="M682,-103.95C682,-91.09 682,-75.55 682,-62.49"/>
<polygon fill="black" stroke="black" points="685.5,-62.21 682,-52.21 678.5,-62.21 685.5,-62.21"/>
</g>
<!-- SUB&#45;&gt;ART -->
<g id="edge18" class="edge">
<title>SUB&#45;&gt;ART</title>
<path fill="none" stroke="black" stroke-dasharray="5,2" d="M736.51,-107.39C762.16,-96.81 793.42,-83.91 822.42,-71.95"/>
<polygon fill="black" stroke="black" points="823.83,-75.15 831.74,-68.1 821.16,-68.68 823.83,-75.15"/>
</g>
</g>
</svg>
