<?xml version="1.0" encoding="UTF-8" standalone="no"?>
<!DOCTYPE svg PUBLIC "-//W3C//DTD SVG 1.1//EN"
 "http://www.w3.org/Graphics/SVG/1.1/DTD/svg11.dtd">
<!-- Generated by graphviz version 2.43.0 (0)
 -->
<!-- Title: pipeline Pages: 1 -->
<svg width="515pt" height="1270pt"
 viewBox="0.00 0.00 515.00 1270.37" xmlns="http://www.w3.org/2000/svg" xmlns:xlink="http://www.w3.org/1999/xlink">
<g id="graph0" class="graph" transform="scale(1 1) rotate(0) translate(4 1266.37)">
<title>pipeline</title>
<polygon fill="white" stroke="transparent" points="-4,4 -4,-1266.37 511,-1266.37 511,4 -4,4"/>
<g id="clust1" class="cluster">
<title>cluster_entry</title>
<path fill="none" stroke="lightgrey" d="M70,-908.67C70,-908.67 412,-908.67 412,-908.67 418,-908.67 424,-914.67 424,-920.67 424,-920.67 424,-1242.37 424,-1242.37 424,-1248.37 418,-1254.37 412,-1254.37 412,-1254.37 70,-1254.37 70,-1254.37 64,-1254.37 58,-1248.37 58,-1242.37 58,-1242.37 58,-920.67 58,-920.67 58,-914.67 64,-908.67 70,-908.67"/>
<text text-anchor="middle" x="241" y="-1240.77" font-family="Helvetica,sans-Serif" font-size="12.00">Entry &amp; Orchestration</text>
</g>
<g id="clust2" class="cluster">
<title>cluster_calib</title>
<path fill="none" stroke="lightgrey" d="M104,-656.55C104,-656.55 378,-656.55 378,-656.55 384,-656.55 390,-662.55 390,-668.55 390,-668.55 390,-888.67 390,-888.67 390,-894.67 384,-900.67 378,-900.67 378,-900.67 104,-900.67 104,-900.67 98,-900.67 92,-894.67 92,-888.67 92,-888.67 92,-668.55 92,-668.55 92,-662.55 98,-656.55 104,-656.55"/>
<text text-anchor="middle" x="241" y="-887.07" font-family="Helvetica,sans-Serif" font-size="12.00">Calibration &amp; Preprocessing</text>
</g>
<g id="clust3" class="cluster">
<title>cluster_model</title>
<path fill="none" stroke="lightgrey" d="M20,-335.91C20,-335.91 338,-335.91 338,-335.91 344,-335.91 350,-341.91 350,-347.91 350,-347.91 350,-636.55 350,-636.55 350,-642.55 344,-648.55 338,-648.55 338,-648.55 20,-648.55 20,-648.55 14,-648.55 8,-642.55 8,-636.55 8,-636.55 8,-347.91 8,-347.91 8,-341.91 14,-335.91 20,-335.91"/>
<text text-anchor="middle" x="179" y="-634.95" font-family="Helvetica,sans-Serif" font-size="12.00">Modeling</text>
</g>
<g id="clust4" class="cluster">
<title>cluster_diag</title>
<path fill="none" stroke="lightgrey" d="M69,-194.74C69,-194.74 289,-194.74 289,-194.74 295,-194.74 301,-200.74 301,-206.74 301,-206.74 301,-315.91 301,-315.91 301,-321.91 295,-327.91 289,-327.91 289,-327.91 69,-327.91 69,-327.91 63,-327.91 57,-321.91 57,-315.91 57,-315.91 57,-206.74 57,-206.74 57,-200.74 63,-194.74 69,-194.74"/>
<text text-anchor="middle" x="179" y="-314.31" font-family="Helvetica,sans-Serif" font-size="12.00">Diagnostics</text>
</g>
<g id="clust5" class="cluster">
<title>cluster_submit</title>
<path fill="none" stroke="lightgrey" d="M31,-8C31,-8 267,-8 267,-8 273,-8 279,-14 279,-20 279,-20 279,-174.74 279,-174.74 279,-180.74 273,-186.74 267,-186.74 267,-186.74 31,-186.74 31,-186.74 25,-186.74 19,-180.74 19,-174.74 19,-174.74 19,-20 19,-20 19,-14 25,-8 31,-8"/>
<text text-anchor="middle" x="149" y="-173.14" font-family="Helvetica,sans-Serif" font-size="12.00">Submission</text>
</g>
<!-- UCI -->
<g id="node1" class="node">
<title>UCI</title>
<ellipse fill="none" stroke="black" cx="241" cy="-1207.37" rx="51.99" ry="18"/>
<text text-anchor="middle" x="241" y="-1203.67" font-family="Times,serif" font-size="14.00">User / CI</text>
</g>
<!-- CLI -->
<g id="node2" class="node">
<title>CLI</title>
<ellipse fill="none" stroke="black" cx="241" cy="-1115.89" rx="175.23" ry="37.45"/>
<text text-anchor="middle" x="241" y="-1127.19" font-family="Times,serif" font-size="14.00">spectramind CLI</text>
<text text-anchor="middle" x="241" y="-1112.19" font-family="Times,serif" font-size="14.00">(calibrate, preprocess,</text>
<text text-anchor="middle" x="241" y="-1097.19" font-family="Times,serif" font-size="14.00">train, predict, diagnose, submit)</text>
</g>
<!-- UCI&#45;&gt;CLI -->
<g id="edge1" class="edge">
<title>UCI&#45;&gt;CLI</title>
<path fill="none" stroke="black" d="M241,-1189.11C241,-1181.81 241,-1172.91 241,-1163.88"/>
<polygon fill="black" stroke="black" points="244.5,-1163.72 241,-1153.72 237.5,-1163.72 244.5,-1163.72"/>
</g>
<!-- HYDRA -->
<g id="node3" class="node">
<title>HYDRA</title>
<ellipse fill="none" stroke="black" cx="241" cy="-1015.54" rx="165.43" ry="26.74"/>
<text text-anchor="middle" x="241" y="-1019.34" font-family="Times,serif" font-size="14.00">Hydra configs</text>
<text text-anchor="middle" x="241" y="-1004.34" font-family="Times,serif" font-size="14.00">(configs/**/*.yaml + overrides)</text>
</g>
<!-- CLI&#45;&gt;HYDRA -->
<g id="edge2" class="edge">
<title>CLI&#45;&gt;HYDRA</title>
<path fill="none" stroke="black" d="M241,-1078.27C241,-1069.9 241,-1061.01 241,-1052.66"/>
<polygon fill="black" stroke="black" points="244.5,-1052.45 241,-1042.45 237.5,-1052.45 244.5,-1052.45"/>
</g>
<!-- DVC -->
<g id="node4" class="node">
<title>DVC</title>
<ellipse fill="none" stroke="black" cx="241" cy="-934.67" rx="122.38" ry="18"/>
<text text-anchor="middle" x="241" y="-930.97" font-family="Times,serif" font-size="14.00">DVC pipeline (dvc.yaml)</text>
</g>
<!-- HYDRA&#45;&gt;DVC -->
<g id="edge3" class="edge">
<title>HYDRA&#45;&gt;DVC</title>
<path fill="none" stroke="black" d="M241,-988.28C241,-980.18 241,-971.24 241,-963.07"/>
<polygon fill="black" stroke="black" points="244.5,-962.89 241,-952.89 237.5,-962.89 244.5,-962.89"/>
</g>
<!-- CAL -->
<g id="node5" class="node">
<title>CAL</title>
<ellipse fill="none" stroke="black" cx="241" cy="-823.59" rx="141.34" ry="48.17"/>
<text text-anchor="middle" x="241" y="-842.39" font-family="Times,serif" font-size="14.00">Calibration:</text>
<text text-anchor="middle" x="241" y="-827.39" font-family="Times,serif" font-size="14.00">FGS1 + AIRS</text>
<text text-anchor="middle" x="241" y="-812.39" font-family="Times,serif" font-size="14.00">(ADC, dark, flat,</text>
<text text-anchor="middle" x="241" y="-797.39" font-family="Times,serif" font-size="14.00">trace, photometry, phase)</text>
</g>
<!-- DVC&#45;&gt;CAL -->
<g id="edge4" class="edge">
<title>DVC&#45;&gt;CAL</title>
<path fill="none" stroke="black" d="M241,-916.63C241,-907.17 241,-894.8 241,-882.21"/>
<polygon fill="black" stroke="black" points="244.5,-882.12 241,-872.12 237.5,-882.12 244.5,-882.12"/>
</g>
<!-- PRE -->
<g id="node6" class="node">
<title>PRE</title>
<ellipse fill="none" stroke="black" cx="236" cy="-702.03" rx="130.63" ry="37.45"/>
<text text-anchor="middle" x="236" y="-713.33" font-family="Times,serif" font-size="14.00">Preprocessing:</text>
<text text-anchor="middle" x="236" y="-698.33" font-family="Times,serif" font-size="14.00">Normalization, binning,</text>
<text text-anchor="middle" x="236" y="-683.33" font-family="Times,serif" font-size="14.00">jitter detrend</text>
</g>
<!-- CAL&#45;&gt;PRE -->
<g id="edge5" class="edge">
<title>CAL&#45;&gt;PRE</title>
<path fill="none" stroke="black" d="M239.02,-775.34C238.67,-766.89 238.3,-758.1 237.95,-749.67"/>
<polygon fill="black" stroke="black" points="241.44,-749.46 237.53,-739.62 234.45,-749.76 241.44,-749.46"/>
</g>
<!-- ART -->
<g id="node13" class="node">
<title>ART</title>
<polygon fill="none" stroke="blue" points="501,-68 287,-68 287,0 507,0 507,-62 501,-68"/>
<polyline fill="none" stroke="blue" points="501,-68 501,-62 "/>
<polyline fill="none" stroke="blue" points="507,-62 501,-62 "/>
<text text-anchor="middle" x="397" y="-52.8" font-family="Times,serif" font-size="14.00">Artifacts &amp; Outputs</text>
<text text-anchor="middle" x="397" y="-37.8" font-family="Times,serif" font-size="14.00">(DVC&#45;tracked: data,</text>
<text text-anchor="middle" x="397" y="-22.8" font-family="Times,serif" font-size="14.00">checkpoints, metrics, logs,</text>
<text text-anchor="middle" x="397" y="-7.8" font-family="Times,serif" font-size="14.00">HTML reports, submissions)</text>
</g>
<!-- CAL&#45;&gt;ART -->
<g id="edge12" class="edge">
<title>CAL&#45;&gt;ART</title>
<path fill="none" stroke="black" stroke-dasharray="5,2" d="M325.74,-785.02C344.79,-772.98 363.14,-757.89 376,-739.51 416.68,-681.36 408,-654.04 408,-583.08 408,-583.08 408,-583.08 408,-249.82 408,-190.31 403.74,-121.65 400.52,-78.28"/>
<polygon fill="black" stroke="black" points="403.99,-77.8 399.75,-68.09 397.01,-78.33 403.99,-77.8"/>
</g>
<!-- ENC -->
<g id="node7" class="node">
<title>ENC</title>
<ellipse fill="none" stroke="black" cx="223" cy="-582.08" rx="118.59" ry="37.45"/>
<text text-anchor="middle" x="223" y="-593.38" font-family="Times,serif" font-size="14.00">Encoders:</text>
<text text-anchor="middle" x="223" y="-578.38" font-family="Times,serif" font-size="14.00">FGS1 = Mamba SSM</text>
<text text-anchor="middle" x="223" y="-563.38" font-family="Times,serif" font-size="14.00">AIRS = CNN/GNN</text>
</g>
<!-- PRE&#45;&gt;ENC -->
<g id="edge6" class="edge">
<title>PRE&#45;&gt;ENC</title>
<path fill="none" stroke="black" d="M231.96,-664.36C230.76,-653.48 229.43,-641.42 228.17,-629.99"/>
<polygon fill="black" stroke="black" points="231.61,-629.29 227.04,-619.73 224.66,-630.05 231.61,-629.29"/>
</g>
<!-- FUS -->
<g id="node8" class="node">
<title>FUS</title>
<ellipse fill="none" stroke="black" cx="179" cy="-481.73" rx="162.77" ry="26.74"/>
<text text-anchor="middle" x="179" y="-485.53" font-family="Times,serif" font-size="14.00">Fusion:</text>
<text text-anchor="middle" x="179" y="-470.53" font-family="Times,serif" font-size="14.00">Dual Encoder Cross&#45;Attention</text>
</g>
<!-- ENC&#45;&gt;FUS -->
<g id="edge7" class="edge">
<title>ENC&#45;&gt;FUS</title>
<path fill="none" stroke="black" d="M206.74,-544.74C202.82,-535.98 198.64,-526.63 194.75,-517.93"/>
<polygon fill="black" stroke="black" points="197.94,-516.48 190.66,-508.79 191.55,-519.34 197.94,-516.48"/>
</g>
<!-- ENC&#45;&gt;ART -->
<g id="edge13" class="edge">
<title>ENC&#45;&gt;ART</title>
<path fill="none" stroke="black" stroke-dasharray="5,2" d="M298.23,-553.06C318.29,-542.12 337.98,-527.54 351,-508.6 383.15,-461.86 370,-439.11 370,-382.38 370,-382.38 370,-382.38 370,-249.82 370,-189.97 380.45,-121.46 388.34,-78.22"/>
<polygon fill="black" stroke="black" points="391.8,-78.8 390.19,-68.33 384.91,-77.52 391.8,-78.8"/>
</g>
<!-- DEC -->
<g id="node9" class="node">
<title>DEC</title>
<ellipse fill="none" stroke="black" cx="179" cy="-381.38" rx="126.64" ry="37.45"/>
<text text-anchor="middle" x="179" y="-392.68" font-family="Times,serif" font-size="14.00">Decoders:</text>
<text text-anchor="middle" x="179" y="-377.68" font-family="Times,serif" font-size="14.00">μ &amp; σ (heteroscedastic</text>
<text text-anchor="middle" x="179" y="-362.68" font-family="Times,serif" font-size="14.00">Gaussian LL loss)</text>
</g>
<!-- FUS&#45;&gt;DEC -->
<g id="edge8" class="edge">
<title>FUS&#45;&gt;DEC</title>
<path fill="none" stroke="black" d="M179,-454.63C179,-446.78 179,-437.91 179,-429.15"/>
<polygon fill="black" stroke="black" points="182.5,-428.97 179,-418.97 175.5,-428.97 182.5,-428.97"/>
</g>
<!-- DIA -->
<g id="node10" class="node">
<title>DIA</title>
<ellipse fill="none" stroke="black" cx="179" cy="-250.82" rx="113.69" ry="48.17"/>
<text text-anchor="middle" x="179" y="-269.62" font-family="Times,serif" font-size="14.00">Diagnostics:</text>
<text text-anchor="middle" x="179" y="-254.62" font-family="Times,serif" font-size="14.00">GLL metric, FFT,</text>
<text text-anchor="middle" x="179" y="-239.62" font-family="Times,serif" font-size="14.00">UMAP/t&#45;SNE, SHAP,</text>
<text text-anchor="middle" x="179" y="-224.62" font-family="Times,serif" font-size="14.00">symbolic checks</text>
</g>
<!-- DEC&#45;&gt;DIA -->
<g id="edge9" class="edge">
<title>DEC&#45;&gt;DIA</title>
<path fill="none" stroke="black" d="M179,-343.89C179,-333.09 179,-321 179,-309.23"/>
<polygon fill="black" stroke="black" points="182.5,-309 179,-299 175.5,-309 182.5,-309"/>
</g>
<!-- SUB -->
<g id="node11" class="node">
<title>SUB</title>
<ellipse fill="none" stroke="black" cx="149" cy="-130.87" rx="121.74" ry="26.74"/>
<text text-anchor="middle" x="149" y="-134.67" font-family="Times,serif" font-size="14.00">Submission Bundle:</text>
<text text-anchor="middle" x="149" y="-119.67" font-family="Times,serif" font-size="14.00">CSV + manifest + zip</text>
</g>
<!-- DIA&#45;&gt;SUB -->
<g id="edge10" class="edge">
<title>DIA&#45;&gt;SUB</title>
<path fill="none" stroke="black" d="M167.06,-202.87C164.08,-191.16 160.93,-178.79 158.12,-167.72"/>
<polygon fill="black" stroke="black" points="161.49,-166.8 155.64,-157.97 154.71,-168.52 161.49,-166.8"/>
</g>
<!-- DIA&#45;&gt;ART -->
<g id="edge14" class="edge">
<title>DIA&#45;&gt;ART</title>
<path fill="none" stroke="black" stroke-dasharray="5,2" d="M248.75,-212.62C260.75,-204.82 272.67,-196.1 283,-186.74 318.72,-154.39 350.83,-109.48 371.8,-76.92"/>
<polygon fill="black" stroke="black" points="375.01,-78.4 377.42,-68.08 369.1,-74.65 375.01,-78.4"/>
</g>
<!-- LB -->
<g id="node12" class="node">
<title>LB</title>
<ellipse fill="none" stroke="black" cx="149" cy="-34" rx="104.78" ry="18"/>
<text text-anchor="middle" x="149" y="-30.3" font-family="Times,serif" font-size="14.00">Kaggle Leaderboard</text>
</g>
<!-- SUB&#45;&gt;LB -->
<g id="edge11" class="edge">
<title>SUB&#45;&gt;LB</title>
<path fill="none" stroke="black" d="M149,-103.95C149,-91.09 149,-75.55 149,-62.49"/>
<polygon fill="black" stroke="black" points="152.5,-62.21 149,-52.21 145.5,-62.21 152.5,-62.21"/>
</g>
<!-- SUB&#45;&gt;ART -->
<g id="edge15" class="edge">
<title>SUB&#45;&gt;ART</title>
<path fill="none" stroke="black" stroke-dasharray="5,2" d="M208.09,-107.27C235.87,-96.64 269.71,-83.69 301.04,-71.71"/>
<polygon fill="black" stroke="black" points="302.58,-74.87 310.67,-68.03 300.08,-68.33 302.58,-74.87"/>
</g>
</g>
</svg>
